name C:\Users\Nicos\Desktop\Gil_twoSteps\Study2\ExperimentalData\IK_Splined\twoSteps_IK_BSplines_40_meshInts_study2_p02_s_01_lowIK_modROI.mot
datacolumns 38
datarows 5
range 0.43700000 0.44790000
endheader
                time	         pelvis_tilt	         pelvis_list	     pelvis_rotation	           pelvis_tx	           pelvis_ty	           pelvis_tz	       hip_flexion_r	     hip_adduction_r	      hip_rotation_r	        knee_angle_r	       ankle_angle_r	    subtalar_angle_r	         mtp_angle_r	       hip_flexion_l	     hip_adduction_l	      hip_rotation_l	        knee_angle_l	       ankle_angle_l	    subtalar_angle_l	         mtp_angle_l	    lumbar_extension	      lumbar_bending	     lumbar_rotation	          arm_flex_r	           arm_add_r	           arm_rot_r	        elbow_flex_r	           pro_sup_r	        wrist_flex_r	         wrist_dev_r	          arm_flex_l	           arm_add_l	           arm_rot_l	        elbow_flex_l	           pro_sup_l	        wrist_flex_l	         wrist_dev_l	
          0.43700000	        -21.98806057	          1.27967549	        -11.14406339	         -0.86219106	          0.85272758	          0.34082518	         26.17698882	          1.77217484	         10.70740816	        -56.97775257	         19.79850181	        -15.85544653	         12.00339273	         53.99667423	         -3.19057816	        -14.54375959	       -110.42094224	         -6.31952306	        -15.22331375	          9.12971647	        -24.94352977	         -3.29362417	         -6.32203069	         32.16282114	          0.16344607	         10.00335505	         82.23684514	         71.82367897	         -5.39162019	         10.75265407	        -43.23514709	         -9.99621363	        -16.84731347	         36.68971142	         71.81621779	        -10.48420707	         19.11290791	
          0.43869006	        -21.88625837	          1.51839143	        -11.32853425	         -0.85469228	          0.85249096	          0.34117399	         25.45289966	          1.38110824	         10.80962123	        -56.54880065	         19.73932449	        -15.65977990	         12.41452138	         55.12398543	         -3.01605035	        -14.41115873	       -110.83946290	         -5.85339145	        -15.27869769	          9.16198146	        -24.85664969	         -3.76606786	         -6.39052387	         33.68706395	          0.55574471	         10.50457556	         82.80147648	         71.64709513	         -5.44500957	         10.77001327	        -44.72760980	         -9.77265894	        -17.15813998	         37.19651451	         72.38637238	        -10.27325506	         19.34082583	
          0.44402994	        -21.56473919	          2.27393808	        -11.91007081	         -0.83099440	          0.85174223	          0.34227385	         23.16385251	          0.14268941	         11.13112556	        -55.19049798	         19.54941488	        -15.03982031	         13.71574249	         58.68541540	         -2.46408850	        -13.99247914	       -112.15857192	         -4.38208686	        -15.45471143	          9.26285962	        -24.58135004	         -5.25951633	         -6.60598049	         38.50086054	          1.79289646	         12.08708405	         84.58843160	         71.08789001	         -5.61451585	         10.82450560	        -49.44285853	         -9.06610185	        -18.14143807	         38.80190488	         74.18450968	         -9.60611742	         20.06046027	
          0.44790000	        -21.34896847	          2.98880989	        -12.16239805	         -0.81320077	          0.85105881	          0.34278187	         21.34795586	         -1.11573171	         11.17813408	        -53.82184308	         19.03477762	        -14.36779434	         14.94441627	         61.21343481	         -1.99655614	        -13.72567208	       -112.69749223	         -3.50610586	        -15.71376809	          9.19896426	        -24.27977591	         -6.43432373	         -6.63954338	         41.70837547	          2.38726405	         13.08700642	         86.26272181	         70.51909976	         -5.84244575	         10.81829450	        -52.81854732	         -8.52633028	        -19.00999822	         40.49226540	         75.06121624	         -9.04352000	         20.51863432	
          0.44790000	        -21.34896847	          2.98880989	        -12.16239805	         -0.81320077	          0.85105881	          0.34278187	         21.34795586	         -1.11573171	         11.17813408	        -53.82184308	         19.03477762	        -14.36779434	         14.94441627	         61.21343481	         -1.99655614	        -13.72567208	       -112.69749223	         -3.50610586	        -15.71376809	          9.19896426	        -24.27977591	         -6.43432373	         -6.63954338	         41.70837547	          2.38726405	         13.08700642	         86.26272181	         70.51909976	         -5.84244575	         10.81829450	        -52.81854732	         -8.52633028	        -19.00999822	         40.49226540	         75.06121624	         -9.04352000	         20.51863432	
